<?xml version="1.0" standalone="no"?>
<!DOCTYPE svg PUBLIC "-//W3C//DTD SVG 20010904//EN"
 "http://www.w3.org/TR/2001/REC-SVG-20010904/DTD/svg10.dtd">
<svg version="1.0" xmlns="http://www.w3.org/2000/svg"
 width="240.000000pt" height="240.000000pt" viewBox="0 0 240.000000 240.000000"
 preserveAspectRatio="xMidYMid meet">

<g transform="translate(0.000000,240.000000) scale(0.100000,-0.100000)"
fill="#ffffff" stroke="none">
<path fill="#ffffff" d="M861 2079 c-42 -22 -101 -88 -101 -116 0 -10 -40 -13 -206 -13 -134
0 -221 -4 -248 -12 -54 -16 -128 -90 -144 -144 -17 -59 -17 -1129 0 -1188 17
-55 93 -131 146 -146 28 -7 307 -10 916 -8 l874 3 43 30 c24 17 57 50 74 74
l30 43 3 574 c2 395 -1 587 -8 615 -15 54 -91 130 -146 147 -26 8 -115 12
-245 12 l-204 1 -21 42 c-11 24 -39 55 -63 72 l-43 30 -306 3 c-298 2 -308 2
-351 -19z m616 -137 c7 -4 26 -38 43 -75 l30 -67 251 0 250 0 24 -25 25 -24 0
-551 0 -551 -25 -24 -24 -25 -851 0 -851 0 -24 25 -25 24 0 551 0 551 25 24
24 25 250 0 251 0 30 67 c17 37 36 71 43 75 16 10 538 10 554 0z"/>
<path fill="#ffffff" d="M450 1575 l0 -75 75 0 75 0 0 75 0 75 -75 0 -75 0 0 -75z"/>
<path fill="#ffffff" d="M1088 1635 c-82 -22 -141 -57 -204 -119 -179 -180 -179 -450 1 -632
178 -179 451 -179 631 0 180 180 180 452 0 632 -115 114 -279 160 -428 119z
m246 -169 c105 -51 161 -144 161 -266 0 -123 -56 -214 -163 -267 -47 -23 -70
-28 -132 -28 -62 0 -85 5 -132 28 -160 79 -215 278 -118 430 80 126 246 170
384 103z"/>
</g>
</svg>
